<svg width="26" height="26" viewBox="0 0 26 26" fill="none" xmlns="http://www.w3.org/2000/svg">
<path d="M3.01364 21.358L4.68 23.032L6.80727 20.9068L5.12909 19.221L3.01364 21.358ZM11.8182 26H14.1818V22.4977H11.8182V26ZM13 5.87671C11.1194 5.87671 9.31577 6.6272 7.98597 7.96307C6.65617 9.29895 5.90909 11.1108 5.90909 13C5.90909 14.8892 6.65617 16.701 7.98597 18.0369C9.31577 19.3728 11.1194 20.1233 13 20.1233C14.8806 20.1233 16.6842 19.3728 18.014 18.0369C19.3438 16.701 20.0909 14.8892 20.0909 13C20.0909 9.05845 16.9118 5.87671 13 5.87671ZM22.4545 14.1872H26V11.8128H22.4545V14.1872ZM19.1927 20.9068L21.32 23.032L22.9864 21.358L20.8709 19.221L19.1927 20.9068ZM22.9864 4.64201L21.32 2.96804L19.1927 5.09315L20.8709 6.779L22.9864 4.64201ZM14.1818 0H11.8182V3.50228H14.1818V0ZM3.54545 11.8128H0V14.1872H3.54545V11.8128ZM6.80727 5.09315L4.68 2.96804L3.01364 4.64201L5.12909 6.779L6.80727 5.09315Z" fill="#F5F5F5"/>
</svg>
