<svg width="62" height="41" viewBox="0 0 62 41" fill="none" xmlns="http://www.w3.org/2000/svg">
<path fill-rule="evenodd" clip-rule="evenodd" d="M53 28H38V27H53V28Z" fill="#68AFF1"/>
<path fill-rule="evenodd" clip-rule="evenodd" d="M62 37H32V36H62V37Z" fill="#68AFF1"/>
<circle cx="20.5" cy="20.5" r="20.5" fill="#F5F5F5"/>
<path fill-rule="evenodd" clip-rule="evenodd" d="M26.8953 21.8901C27.6394 21.8047 28.0115 21.6948 28.0115 21.5606V13.6873H30.2619C30.4899 13.6873 30.6699 13.4005 30.802 12.8268C30.934 12.2531 31 11.6427 31 10.9958C31 10.3488 30.964 9.85446 30.892 9.51268C30.832 9.17089 30.7119 9 30.5319 9H20.7921C20.5521 9 20.3601 9.27465 20.216 9.82394C20.072 10.361 20 10.9714 20 11.6549C20 12.3263 20.048 12.8329 20.144 13.1746C20.24 13.5164 20.3541 13.6873 20.4861 13.6873H22.9885V17.2437C22.663 17.0812 22.166 17 21.4976 17C20.555 17 19.6749 17.144 18.8571 17.432C18.0531 17.7063 17.6512 18.0149 17.6512 18.3577V22.4514H15.8008V17.9257C15.8008 17.3086 15.1424 17 13.8256 17C12.8831 17 12.0098 17.144 11.2059 17.432C10.402 17.7063 10 18.0149 10 18.3577V31.0092C10 31.2149 10.1178 31.3657 10.3535 31.4617C10.6029 31.5577 11.1504 31.6057 11.996 31.6057C12.8553 31.6057 13.7008 31.5509 14.5325 31.4412C15.378 31.3314 15.8008 31.1874 15.8008 31.0092V26.2983H17.6512V31.0092C17.6512 31.2149 17.769 31.3657 18.0046 31.4617C18.2541 31.5577 18.8016 31.6057 19.6471 31.6057C20.4926 31.6057 21.3382 31.5509 22.1837 31.4412C23.0292 31.3314 23.4519 31.1874 23.4519 31.0092V21.9446C23.7019 21.9815 24.1116 22 24.6809 22C25.425 22 26.1631 21.9634 26.8953 21.8901Z" fill="#161924"/>
<line x1="20.1899" y1="9.95" x2="23.1899" y2="9.95" stroke="#68AFF1" stroke-width="0.1"/>
<line x1="20.03" y1="10.95" x2="23.03" y2="10.95" stroke="#68AFF1" stroke-width="0.1"/>
<line x1="27" y1="19.95" x2="28" y2="19.95" stroke="#68AFF1" stroke-width="0.1"/>
<line x1="26" y1="20.95" x2="28" y2="20.95" stroke="#68AFF1" stroke-width="0.1"/>
<line x1="17.65" y1="29.95" x2="19.65" y2="29.95" stroke="#68AFF1" stroke-width="0.1"/>
<line x1="17.65" y1="30.95" x2="19.65" y2="30.95" stroke="#68AFF1" stroke-width="0.1"/>
</svg>
